<?xml version="1.0" encoding="UTF-8" standalone="no"?><svg t="1642307832112" class="icon" viewBox="0 0 1024 1024" version="1.1" p-id="29399" width="200" height="200" id="svg8" sodipodi:docname="jcstudio-v2-color.svg" inkscape:version="1.1.2 (b8e25be833, 2022-02-05)" xmlns:inkscape="http://www.inkscape.org/namespaces/inkscape" xmlns:sodipodi="http://sodipodi.sourceforge.net/DTD/sodipodi-0.dtd" xmlns="http://www.w3.org/2000/svg" xmlns:svg="http://www.w3.org/2000/svg" xmlns:rdf="http://www.w3.org/1999/02/22-rdf-syntax-ns#" xmlns:cc="http://creativecommons.org/ns#" xmlns:dc="http://purl.org/dc/elements/1.1/"><metadata id="metadata12"><rdf:RDF><cc:Work rdf:about=""><dc:format>image/svg+xml</dc:format><dc:type rdf:resource="http://purl.org/dc/dcmitype/StillImage" /></cc:Work></rdf:RDF></metadata><sodipodi:namedview pagecolor="#ffffff" bordercolor="#666666" borderopacity="1" objecttolerance="10" gridtolerance="10" guidetolerance="10" inkscape:pageopacity="0" inkscape:pageshadow="2" inkscape:window-width="1920" inkscape:window-height="1009" id="namedview10" showgrid="false" inkscape:zoom="2.920351" inkscape:cx="142.10621" inkscape:cy="107.86375" inkscape:window-x="-8" inkscape:window-y="-8" inkscape:window-maximized="1" inkscape:current-layer="svg8" inkscape:document-rotation="0" inkscape:pagecheckerboard="0" showguides="false" /><defs id="defs4"><style type="text/css" id="style2">@font-face { font-family: &quot;Leelawadee UI Web&quot;; src: url(&quot;https://static2.sharepointonline.com/files/fabric/assets/fonts/leelawadeeui-thai/leelawadeeui-light.woff2&quot;) format(&quot;woff2&quot;), url(&quot;https://static2.sharepointonline.com/files/fabric/assets/fonts/leelawadeeui-thai/leelawadeeui-light.woff&quot;) format(&quot;woff&quot;); font-weight: 100; font-style: normal; font-display: swap; }
@font-face { font-family: &quot;Leelawadee UI Web&quot;; src: url(&quot;https://static2.sharepointonline.com/files/fabric/assets/fonts/leelawadeeui-thai/leelawadeeui-semilight.woff2&quot;) format(&quot;woff2&quot;), url(&quot;https://static2.sharepointonline.com/files/fabric/assets/fonts/leelawadeeui-thai/leelawadeeui-semilight.woff&quot;) format(&quot;woff&quot;); font-weight: 300; font-style: normal; font-display: swap; }
@font-face { font-family: &quot;Leelawadee UI Web&quot;; src: url(&quot;https://static2.sharepointonline.com/files/fabric/assets/fonts/leelawadeeui-thai/leelawadeeui-regular.woff2&quot;) format(&quot;woff2&quot;), url(&quot;https://static2.sharepointonline.com/files/fabric/assets/fonts/leelawadeeui-thai/leelawadeeui-regular.woff&quot;) format(&quot;woff&quot;); font-weight: 400; font-style: normal; font-display: swap; }
@font-face { font-family: &quot;Leelawadee UI Web&quot;; src: url(&quot;https://static2.sharepointonline.com/files/fabric/assets/fonts/leelawadeeui-thai/leelawadeeui-semibold.woff2&quot;) format(&quot;woff2&quot;), url(&quot;https://static2.sharepointonline.com/files/fabric/assets/fonts/leelawadeeui-thai/leelawadeeui-semibold.woff&quot;) format(&quot;woff&quot;); font-weight: 600; font-style: normal; font-display: swap; }
@font-face { font-family: &quot;Leelawadee UI Web&quot;; src: url(&quot;https://static2.sharepointonline.com/files/fabric/assets/fonts/leelawadeeui-thai/leelawadeeui-bold.woff2&quot;) format(&quot;woff2&quot;), url(&quot;https://static2.sharepointonline.com/files/fabric/assets/fonts/leelawadeeui-thai/leelawadeeui-bold.woff&quot;) format(&quot;woff&quot;); font-weight: 700; font-style: normal; font-display: swap; }
@font-face { font-family: &quot;Segoe UI Web (Arabic)&quot;; src: url(&quot;https://static2.sharepointonline.com/files/fabric/assets/fonts/segoeui-arabic/segoeui-light.woff2&quot;) format(&quot;woff2&quot;), url(&quot;https://static2.sharepointonline.com/files/fabric/assets/fonts/segoeui-arabic/segoeui-light.woff&quot;) format(&quot;woff&quot;); font-weight: 100; font-style: normal; font-display: swap; }
@font-face { font-family: &quot;Segoe UI Web (Arabic)&quot;; src: url(&quot;https://static2.sharepointonline.com/files/fabric/assets/fonts/segoeui-arabic/segoeui-semilight.woff2&quot;) format(&quot;woff2&quot;), url(&quot;https://static2.sharepointonline.com/files/fabric/assets/fonts/segoeui-arabic/segoeui-semilight.woff&quot;) format(&quot;woff&quot;); font-weight: 300; font-style: normal; font-display: swap; }
@font-face { font-family: &quot;Segoe UI Web (Arabic)&quot;; src: url(&quot;https://static2.sharepointonline.com/files/fabric/assets/fonts/segoeui-arabic/segoeui-regular.woff2&quot;) format(&quot;woff2&quot;), url(&quot;https://static2.sharepointonline.com/files/fabric/assets/fonts/segoeui-arabic/segoeui-regular.woff&quot;) format(&quot;woff&quot;); font-weight: 400; font-style: normal; font-display: swap; }
@font-face { font-family: &quot;Segoe UI Web (Arabic)&quot;; src: url(&quot;https://static2.sharepointonline.com/files/fabric/assets/fonts/segoeui-arabic/segoeui-semibold.woff2&quot;) format(&quot;woff2&quot;), url(&quot;https://static2.sharepointonline.com/files/fabric/assets/fonts/segoeui-arabic/segoeui-semibold.woff&quot;) format(&quot;woff&quot;); font-weight: 600; font-style: normal; font-display: swap; }
@font-face { font-family: &quot;Segoe UI Web (Arabic)&quot;; src: url(&quot;https://static2.sharepointonline.com/files/fabric/assets/fonts/segoeui-arabic/segoeui-bold.woff2&quot;) format(&quot;woff2&quot;), url(&quot;https://static2.sharepointonline.com/files/fabric/assets/fonts/segoeui-arabic/segoeui-bold.woff&quot;) format(&quot;woff&quot;); font-weight: 700; font-style: normal; font-display: swap; }
@font-face { font-family: &quot;Segoe UI Web (Cyrillic)&quot;; src: url(&quot;https://static2.sharepointonline.com/files/fabric/assets/fonts/segoeui-cyrillic/segoeui-light.woff2&quot;) format(&quot;woff2&quot;), url(&quot;https://static2.sharepointonline.com/files/fabric/assets/fonts/segoeui-cyrillic/segoeui-light.woff&quot;) format(&quot;woff&quot;); font-weight: 100; font-style: normal; font-display: swap; }
@font-face { font-family: &quot;Segoe UI Web (Cyrillic)&quot;; src: url(&quot;https://static2.sharepointonline.com/files/fabric/assets/fonts/segoeui-cyrillic/segoeui-semilight.woff2&quot;) format(&quot;woff2&quot;), url(&quot;https://static2.sharepointonline.com/files/fabric/assets/fonts/segoeui-cyrillic/segoeui-semilight.woff&quot;) format(&quot;woff&quot;); font-weight: 300; font-style: normal; font-display: swap; }
@font-face { font-family: &quot;Segoe UI Web (Cyrillic)&quot;; src: url(&quot;https://static2.sharepointonline.com/files/fabric/assets/fonts/segoeui-cyrillic/segoeui-regular.woff2&quot;) format(&quot;woff2&quot;), url(&quot;https://static2.sharepointonline.com/files/fabric/assets/fonts/segoeui-cyrillic/segoeui-regular.woff&quot;) format(&quot;woff&quot;); font-weight: 400; font-style: normal; font-display: swap; }
@font-face { font-family: &quot;Segoe UI Web (Cyrillic)&quot;; src: url(&quot;https://static2.sharepointonline.com/files/fabric/assets/fonts/segoeui-cyrillic/segoeui-semibold.woff2&quot;) format(&quot;woff2&quot;), url(&quot;https://static2.sharepointonline.com/files/fabric/assets/fonts/segoeui-cyrillic/segoeui-semibold.woff&quot;) format(&quot;woff&quot;); font-weight: 600; font-style: normal; font-display: swap; }
@font-face { font-family: &quot;Segoe UI Web (Cyrillic)&quot;; src: url(&quot;https://static2.sharepointonline.com/files/fabric/assets/fonts/segoeui-cyrillic/segoeui-bold.woff2&quot;) format(&quot;woff2&quot;), url(&quot;https://static2.sharepointonline.com/files/fabric/assets/fonts/segoeui-cyrillic/segoeui-bold.woff&quot;) format(&quot;woff&quot;); font-weight: 700; font-style: normal; font-display: swap; }
@font-face { font-family: &quot;Segoe UI Web (East European)&quot;; src: url(&quot;https://static2.sharepointonline.com/files/fabric/assets/fonts/segoeui-easteuropean/segoeui-light.woff2&quot;) format(&quot;woff2&quot;), url(&quot;https://static2.sharepointonline.com/files/fabric/assets/fonts/segoeui-easteuropean/segoeui-light.woff&quot;) format(&quot;woff&quot;); font-weight: 100; font-style: normal; font-display: swap; }
@font-face { font-family: &quot;Segoe UI Web (East European)&quot;; src: url(&quot;https://static2.sharepointonline.com/files/fabric/assets/fonts/segoeui-easteuropean/segoeui-semilight.woff2&quot;) format(&quot;woff2&quot;), url(&quot;https://static2.sharepointonline.com/files/fabric/assets/fonts/segoeui-easteuropean/segoeui-semilight.woff&quot;) format(&quot;woff&quot;); font-weight: 300; font-style: normal; font-display: swap; }
@font-face { font-family: &quot;Segoe UI Web (East European)&quot;; src: url(&quot;https://static2.sharepointonline.com/files/fabric/assets/fonts/segoeui-easteuropean/segoeui-regular.woff2&quot;) format(&quot;woff2&quot;), url(&quot;https://static2.sharepointonline.com/files/fabric/assets/fonts/segoeui-easteuropean/segoeui-regular.woff&quot;) format(&quot;woff&quot;); font-weight: 400; font-style: normal; font-display: swap; }
@font-face { font-family: &quot;Segoe UI Web (East European)&quot;; src: url(&quot;https://static2.sharepointonline.com/files/fabric/assets/fonts/segoeui-easteuropean/segoeui-semibold.woff2&quot;) format(&quot;woff2&quot;), url(&quot;https://static2.sharepointonline.com/files/fabric/assets/fonts/segoeui-easteuropean/segoeui-semibold.woff&quot;) format(&quot;woff&quot;); font-weight: 600; font-style: normal; font-display: swap; }
@font-face { font-family: &quot;Segoe UI Web (East European)&quot;; src: url(&quot;https://static2.sharepointonline.com/files/fabric/assets/fonts/segoeui-easteuropean/segoeui-bold.woff2&quot;) format(&quot;woff2&quot;), url(&quot;https://static2.sharepointonline.com/files/fabric/assets/fonts/segoeui-easteuropean/segoeui-bold.woff&quot;) format(&quot;woff&quot;); font-weight: 700; font-style: normal; font-display: swap; }
@font-face { font-family: &quot;Segoe UI Web (Greek)&quot;; src: url(&quot;https://static2.sharepointonline.com/files/fabric/assets/fonts/segoeui-greek/segoeui-light.woff2&quot;) format(&quot;woff2&quot;), url(&quot;https://static2.sharepointonline.com/files/fabric/assets/fonts/segoeui-greek/segoeui-light.woff&quot;) format(&quot;woff&quot;); font-weight: 100; font-style: normal; font-display: swap; }
@font-face { font-family: &quot;Segoe UI Web (Greek)&quot;; src: url(&quot;https://static2.sharepointonline.com/files/fabric/assets/fonts/segoeui-greek/segoeui-semilight.woff2&quot;) format(&quot;woff2&quot;), url(&quot;https://static2.sharepointonline.com/files/fabric/assets/fonts/segoeui-greek/segoeui-semilight.woff&quot;) format(&quot;woff&quot;); font-weight: 300; font-style: normal; font-display: swap; }
@font-face { font-family: &quot;Segoe UI Web (Greek)&quot;; src: url(&quot;https://static2.sharepointonline.com/files/fabric/assets/fonts/segoeui-greek/segoeui-regular.woff2&quot;) format(&quot;woff2&quot;), url(&quot;https://static2.sharepointonline.com/files/fabric/assets/fonts/segoeui-greek/segoeui-regular.woff&quot;) format(&quot;woff&quot;); font-weight: 400; font-style: normal; font-display: swap; }
@font-face { font-family: &quot;Segoe UI Web (Greek)&quot;; src: url(&quot;https://static2.sharepointonline.com/files/fabric/assets/fonts/segoeui-greek/segoeui-semibold.woff2&quot;) format(&quot;woff2&quot;), url(&quot;https://static2.sharepointonline.com/files/fabric/assets/fonts/segoeui-greek/segoeui-semibold.woff&quot;) format(&quot;woff&quot;); font-weight: 600; font-style: normal; font-display: swap; }
@font-face { font-family: &quot;Segoe UI Web (Greek)&quot;; src: url(&quot;https://static2.sharepointonline.com/files/fabric/assets/fonts/segoeui-greek/segoeui-bold.woff2&quot;) format(&quot;woff2&quot;), url(&quot;https://static2.sharepointonline.com/files/fabric/assets/fonts/segoeui-greek/segoeui-bold.woff&quot;) format(&quot;woff&quot;); font-weight: 700; font-style: normal; font-display: swap; }
@font-face { font-family: &quot;Segoe UI Web (Hebrew)&quot;; src: url(&quot;https://static2.sharepointonline.com/files/fabric/assets/fonts/segoeui-hebrew/segoeui-light.woff2&quot;) format(&quot;woff2&quot;), url(&quot;https://static2.sharepointonline.com/files/fabric/assets/fonts/segoeui-hebrew/segoeui-light.woff&quot;) format(&quot;woff&quot;); font-weight: 100; font-style: normal; font-display: swap; }
@font-face { font-family: &quot;Segoe UI Web (Hebrew)&quot;; src: url(&quot;https://static2.sharepointonline.com/files/fabric/assets/fonts/segoeui-hebrew/segoeui-semilight.woff2&quot;) format(&quot;woff2&quot;), url(&quot;https://static2.sharepointonline.com/files/fabric/assets/fonts/segoeui-hebrew/segoeui-semilight.woff&quot;) format(&quot;woff&quot;); font-weight: 300; font-style: normal; font-display: swap; }
@font-face { font-family: &quot;Segoe UI Web (Hebrew)&quot;; src: url(&quot;https://static2.sharepointonline.com/files/fabric/assets/fonts/segoeui-hebrew/segoeui-regular.woff2&quot;) format(&quot;woff2&quot;), url(&quot;https://static2.sharepointonline.com/files/fabric/assets/fonts/segoeui-hebrew/segoeui-regular.woff&quot;) format(&quot;woff&quot;); font-weight: 400; font-style: normal; font-display: swap; }
@font-face { font-family: &quot;Segoe UI Web (Hebrew)&quot;; src: url(&quot;https://static2.sharepointonline.com/files/fabric/assets/fonts/segoeui-hebrew/segoeui-semibold.woff2&quot;) format(&quot;woff2&quot;), url(&quot;https://static2.sharepointonline.com/files/fabric/assets/fonts/segoeui-hebrew/segoeui-semibold.woff&quot;) format(&quot;woff&quot;); font-weight: 600; font-style: normal; font-display: swap; }
@font-face { font-family: &quot;Segoe UI Web (Hebrew)&quot;; src: url(&quot;https://static2.sharepointonline.com/files/fabric/assets/fonts/segoeui-hebrew/segoeui-bold.woff2&quot;) format(&quot;woff2&quot;), url(&quot;https://static2.sharepointonline.com/files/fabric/assets/fonts/segoeui-hebrew/segoeui-bold.woff&quot;) format(&quot;woff&quot;); font-weight: 700; font-style: normal; font-display: swap; }
@font-face { font-family: &quot;Segoe UI Web (Vietnamese)&quot;; src: url(&quot;https://static2.sharepointonline.com/files/fabric/assets/fonts/segoeui-vietnamese/segoeui-light.woff2&quot;) format(&quot;woff2&quot;), url(&quot;https://static2.sharepointonline.com/files/fabric/assets/fonts/segoeui-vietnamese/segoeui-light.woff&quot;) format(&quot;woff&quot;); font-weight: 100; font-style: normal; font-display: swap; }
@font-face { font-family: &quot;Segoe UI Web (Vietnamese)&quot;; src: url(&quot;https://static2.sharepointonline.com/files/fabric/assets/fonts/segoeui-vietnamese/segoeui-semilight.woff2&quot;) format(&quot;woff2&quot;), url(&quot;https://static2.sharepointonline.com/files/fabric/assets/fonts/segoeui-vietnamese/segoeui-semilight.woff&quot;) format(&quot;woff&quot;); font-weight: 300; font-style: normal; font-display: swap; }
@font-face { font-family: &quot;Segoe UI Web (Vietnamese)&quot;; src: url(&quot;https://static2.sharepointonline.com/files/fabric/assets/fonts/segoeui-vietnamese/segoeui-regular.woff2&quot;) format(&quot;woff2&quot;), url(&quot;https://static2.sharepointonline.com/files/fabric/assets/fonts/segoeui-vietnamese/segoeui-regular.woff&quot;) format(&quot;woff&quot;); font-weight: 400; font-style: normal; font-display: swap; }
@font-face { font-family: &quot;Segoe UI Web (Vietnamese)&quot;; src: url(&quot;https://static2.sharepointonline.com/files/fabric/assets/fonts/segoeui-vietnamese/segoeui-semibold.woff2&quot;) format(&quot;woff2&quot;), url(&quot;https://static2.sharepointonline.com/files/fabric/assets/fonts/segoeui-vietnamese/segoeui-semibold.woff&quot;) format(&quot;woff&quot;); font-weight: 600; font-style: normal; font-display: swap; }
@font-face { font-family: &quot;Segoe UI Web (Vietnamese)&quot;; src: url(&quot;https://static2.sharepointonline.com/files/fabric/assets/fonts/segoeui-vietnamese/segoeui-bold.woff2&quot;) format(&quot;woff2&quot;), url(&quot;https://static2.sharepointonline.com/files/fabric/assets/fonts/segoeui-vietnamese/segoeui-bold.woff&quot;) format(&quot;woff&quot;); font-weight: 700; font-style: normal; font-display: swap; }
@font-face { font-family: &quot;Segoe UI Web (West European)&quot;; src: local(&quot;Segoe UI Light&quot;), url(&quot;https://static2.sharepointonline.com/files/fabric/assets/fonts/segoeui-westeuropean/segoeui-light.woff2&quot;) format(&quot;woff2&quot;), url(&quot;https://static2.sharepointonline.com/files/fabric/assets/fonts/segoeui-westeuropean/segoeui-light.woff&quot;) format(&quot;woff&quot;); font-weight: 100; font-style: normal; font-display: swap; }
@font-face { font-family: &quot;Segoe UI Web (West European)&quot;; src: local(&quot;Segoe UI SemiLight&quot;), url(&quot;https://static2.sharepointonline.com/files/fabric/assets/fonts/segoeui-westeuropean/segoeui-semilight.woff2&quot;) format(&quot;woff2&quot;), url(&quot;https://static2.sharepointonline.com/files/fabric/assets/fonts/segoeui-westeuropean/segoeui-semilight.woff&quot;) format(&quot;woff&quot;); font-weight: 300; font-style: normal; font-display: swap; }
@font-face { font-family: &quot;Segoe UI Web (West European)&quot;; src: local(&quot;Segoe UI&quot;), url(&quot;https://static2.sharepointonline.com/files/fabric/assets/fonts/segoeui-westeuropean/segoeui-regular.woff2&quot;) format(&quot;woff2&quot;), url(&quot;https://static2.sharepointonline.com/files/fabric/assets/fonts/segoeui-westeuropean/segoeui-regular.woff&quot;) format(&quot;woff&quot;); font-weight: 400; font-style: normal; font-display: swap; }
@font-face { font-family: &quot;Segoe UI Web (West European)&quot;; src: local(&quot;Segoe UI SemiBold&quot;), url(&quot;https://static2.sharepointonline.com/files/fabric/assets/fonts/segoeui-westeuropean/segoeui-semibold.woff2&quot;) format(&quot;woff2&quot;), url(&quot;https://static2.sharepointonline.com/files/fabric/assets/fonts/segoeui-westeuropean/segoeui-semibold.woff&quot;) format(&quot;woff&quot;); font-weight: 600; font-style: normal; font-display: swap; }
@font-face { font-family: &quot;Segoe UI Web (West European)&quot;; src: local(&quot;Segoe UI Bold&quot;), url(&quot;https://static2.sharepointonline.com/files/fabric/assets/fonts/segoeui-westeuropean/segoeui-bold.woff2&quot;) format(&quot;woff2&quot;), url(&quot;https://static2.sharepointonline.com/files/fabric/assets/fonts/segoeui-westeuropean/segoeui-bold.woff&quot;) format(&quot;woff&quot;); font-weight: 700; font-style: normal; font-display: swap; }
@font-face { src: url(&quot;https://static2.sharepointonline.com/files/fabric/assets/fonts/selawik/selawik-light.woff2&quot;) format(&quot;woff2&quot;), url(&quot;https://static2.sharepointonline.com/files/fabric/assets/fonts/selawik/selawik-light.woff&quot;) format(&quot;woff&quot;); font-weight: 100; font-style: normal; font-display: swap; }
@font-face { src: url(&quot;https://static2.sharepointonline.com/files/fabric/assets/fonts/selawik/selawik-semilight.woff2&quot;) format(&quot;woff2&quot;), url(&quot;https://static2.sharepointonline.com/files/fabric/assets/fonts/selawik/selawik-semilight.woff&quot;) format(&quot;woff&quot;); font-weight: 300; font-style: normal; font-display: swap; }
@font-face { src: url(&quot;https://static2.sharepointonline.com/files/fabric/assets/fonts/selawik/selawik-regular.woff2&quot;) format(&quot;woff2&quot;), url(&quot;https://static2.sharepointonline.com/files/fabric/assets/fonts/selawik/selawik-regular.woff&quot;) format(&quot;woff&quot;); font-weight: 400; font-style: normal; font-display: swap; }
@font-face { src: url(&quot;https://static2.sharepointonline.com/files/fabric/assets/fonts/selawik/selawik-semibold.woff2&quot;) format(&quot;woff2&quot;), url(&quot;https://static2.sharepointonline.com/files/fabric/assets/fonts/selawik/selawik-semibold.woff&quot;) format(&quot;woff&quot;); font-weight: 600; font-style: normal; font-display: swap; }
@font-face { src: url(&quot;https://static2.sharepointonline.com/files/fabric/assets/fonts/selawik/selawik-bold.woff2&quot;) format(&quot;woff2&quot;), url(&quot;https://static2.sharepointonline.com/files/fabric/assets/fonts/selawik/selawik-bold.woff&quot;) format(&quot;woff&quot;); font-weight: 700; font-style: normal; font-display: swap; }
@font-face { font-family: &quot;Segoe UI Web (Armenian)&quot;; src: url(&quot;https://static2.sharepointonline.com/files/fabric/assets/fonts/segoeui-armenian/segoeui-light.woff2&quot;) format(&quot;woff2&quot;), url(&quot;https://static2.sharepointonline.com/files/fabric/assets/fonts/segoeui-armenian/segoeui-light.woff&quot;) format(&quot;woff&quot;); font-weight: 100; font-style: normal; font-display: swap; }
@font-face { font-family: &quot;Segoe UI Web (Armenian)&quot;; src: url(&quot;https://static2.sharepointonline.com/files/fabric/assets/fonts/segoeui-armenian/segoeui-semilight.woff2&quot;) format(&quot;woff2&quot;), url(&quot;https://static2.sharepointonline.com/files/fabric/assets/fonts/segoeui-armenian/segoeui-semilight.woff&quot;) format(&quot;woff&quot;); font-weight: 300; font-style: normal; font-display: swap; }
@font-face { font-family: &quot;Segoe UI Web (Armenian)&quot;; src: url(&quot;https://static2.sharepointonline.com/files/fabric/assets/fonts/segoeui-armenian/segoeui-regular.woff2&quot;) format(&quot;woff2&quot;), url(&quot;https://static2.sharepointonline.com/files/fabric/assets/fonts/segoeui-armenian/segoeui-regular.woff&quot;) format(&quot;woff&quot;); font-weight: 400; font-style: normal; font-display: swap; }
@font-face { font-family: &quot;Segoe UI Web (Armenian)&quot;; src: url(&quot;https://static2.sharepointonline.com/files/fabric/assets/fonts/segoeui-armenian/segoeui-semibold.woff2&quot;) format(&quot;woff2&quot;), url(&quot;https://static2.sharepointonline.com/files/fabric/assets/fonts/segoeui-armenian/segoeui-semibold.woff&quot;) format(&quot;woff&quot;); font-weight: 600; font-style: normal; font-display: swap; }
@font-face { font-family: &quot;Segoe UI Web (Armenian)&quot;; src: url(&quot;https://static2.sharepointonline.com/files/fabric/assets/fonts/segoeui-armenian/segoeui-bold.woff2&quot;) format(&quot;woff2&quot;), url(&quot;https://static2.sharepointonline.com/files/fabric/assets/fonts/segoeui-armenian/segoeui-bold.woff&quot;) format(&quot;woff&quot;); font-weight: 700; font-style: normal; font-display: swap; }
@font-face { font-family: &quot;Segoe UI Web (Georgian)&quot;; src: url(&quot;https://static2.sharepointonline.com/files/fabric/assets/fonts/segoeui-georgian/segoeui-light.woff2&quot;) format(&quot;woff2&quot;), url(&quot;https://static2.sharepointonline.com/files/fabric/assets/fonts/segoeui-georgian/segoeui-light.woff&quot;) format(&quot;woff&quot;); font-weight: 100; font-style: normal; font-display: swap; }
@font-face { font-family: &quot;Segoe UI Web (Georgian)&quot;; src: url(&quot;https://static2.sharepointonline.com/files/fabric/assets/fonts/segoeui-georgian/segoeui-semilight.woff2&quot;) format(&quot;woff2&quot;), url(&quot;https://static2.sharepointonline.com/files/fabric/assets/fonts/segoeui-georgian/segoeui-semilight.woff&quot;) format(&quot;woff&quot;); font-weight: 300; font-style: normal; font-display: swap; }
@font-face { font-family: &quot;Segoe UI Web (Georgian)&quot;; src: url(&quot;https://static2.sharepointonline.com/files/fabric/assets/fonts/segoeui-georgian/segoeui-regular.woff2&quot;) format(&quot;woff2&quot;), url(&quot;https://static2.sharepointonline.com/files/fabric/assets/fonts/segoeui-georgian/segoeui-regular.woff&quot;) format(&quot;woff&quot;); font-weight: 400; font-style: normal; font-display: swap; }
@font-face { font-family: &quot;Segoe UI Web (Georgian)&quot;; src: url(&quot;https://static2.sharepointonline.com/files/fabric/assets/fonts/segoeui-georgian/segoeui-semibold.woff2&quot;) format(&quot;woff2&quot;), url(&quot;https://static2.sharepointonline.com/files/fabric/assets/fonts/segoeui-georgian/segoeui-semibold.woff&quot;) format(&quot;woff&quot;); font-weight: 600; font-style: normal; font-display: swap; }
@font-face { font-family: &quot;Segoe UI Web (Georgian)&quot;; src: url(&quot;https://static2.sharepointonline.com/files/fabric/assets/fonts/segoeui-georgian/segoeui-bold.woff2&quot;) format(&quot;woff2&quot;), url(&quot;https://static2.sharepointonline.com/files/fabric/assets/fonts/segoeui-georgian/segoeui-bold.woff&quot;) format(&quot;woff&quot;); font-weight: 700; font-style: normal; font-display: swap; }
@font-face { font-family: &quot;Leelawadee UI Web&quot;; src: url(&quot;https://static2.sharepointonline.com/files/fabric/assets/fonts/leelawadeeui-thai/leelawadeeui-semilight.woff2&quot;) format(&quot;woff2&quot;), url(&quot;https://static2.sharepointonline.com/files/fabric/assets/fonts/leelawadeeui-thai/leelawadeeui-semilight.woff&quot;) format(&quot;woff&quot;); font-weight: 100; font-style: normal; font-display: swap; }
@font-face { font-family: &quot;Leelawadee UI Web&quot;; src: url(&quot;https://static2.sharepointonline.com/files/fabric/assets/fonts/leelawadeeui-thai/leelawadeeui-bold.woff2&quot;) format(&quot;woff2&quot;), url(&quot;https://static2.sharepointonline.com/files/fabric/assets/fonts/leelawadeeui-thai/leelawadeeui-bold.woff&quot;) format(&quot;woff&quot;); font-weight: 600; font-style: normal; font-display: swap; }
@font-face { font-family: FabricMDL2Icons; src: url(&quot;fabric-icons.woff&quot;) format(&quot;woff&quot;); }
@font-face { font-family: FabricMDL2Icons; src: url(&quot;fabric-icons.woff&quot;) format(&quot;woff&quot;); }
@font-face { font-family: FabricMDL2Icons; src: url(&quot;fabric-icons.woff&quot;) format(&quot;woff&quot;); }
@font-face { font-family: FabricMDL2Icons; src: url(&quot;fabric-icons.woff&quot;) format(&quot;woff&quot;); }
</style><pattern id="EMFhbasepattern" patternUnits="userSpaceOnUse" width="6" height="6" x="0" y="0" /><pattern id="EMFhbasepattern-3" patternUnits="userSpaceOnUse" width="6" height="6" x="0" y="0" /><pattern id="EMFhbasepattern-5" patternUnits="userSpaceOnUse" width="6" height="6" x="0" y="0" /></defs><path style="stroke-width:5.04356" id="path2210" d="" /><path style="stroke-width:13.0032" id="path2190" d="" /><path style="stroke-width:13.0032" id="path2170" d="" /><path style="stroke-width:0.124941" id="path4545" d="" /><path style="fill:#7b3029;fill-opacity:1;fill-rule:evenodd;stroke:none;stroke-width:1.23573" d="m 1016.691,513.54341 c 0,275.94419 -222.65765,499.67859 -497.32526,499.67859 -274.6676,0 -497.325302,-223.7344 -497.325302,-499.67859 0,-275.94419 222.657702,-499.678536 497.325302,-499.678536 274.66761,0 497.32526,223.734346 497.32526,499.678536 z" id="path1069" /><path style="fill:#000000;fill-opacity:1;fill-rule:evenodd;stroke:none;stroke-width:1.23573" d="m 519.36574,7.9689632 c -133.40996,0 -261.4343,53.2959388 -355.75992,148.0959968 C 69.280182,250.865 16.19317,379.48901 16.19317,513.54341 c 0,134.05442 53.087012,262.67839 147.41265,357.47848 94.32562,94.80001 222.34996,148.09601 355.75992,148.09601 133.40998,0 261.35739,-53.296 355.75997,-148.09601 C 969.4513,776.2218 1022.4614,647.59783 1022.4614,513.54341 1022.4614,379.48901 969.4513,250.865 875.12571,156.06496 780.72313,61.264902 652.77572,7.9689632 519.36574,7.9689632 Z m 0,11.7918218 c 130.33248,0 255.35623,51.977119 347.52764,144.605005 92.17133,92.62786 143.95042,218.22632 143.95042,349.17762 0,130.95132 -51.77909,256.54977 -143.95042,349.17765 C 774.72197,955.34894 649.69822,1007.326 519.36574,1007.326 389.03327,1007.326 264.00952,955.34894 171.83815,862.72106 79.666771,770.09318 27.887698,644.49473 27.887698,513.54341 c 0,-130.9513 51.779073,-256.54976 143.950452,-349.17762 C 264.00952,71.737904 389.03327,19.760785 519.36574,19.760785 Z" id="path1066" /><path style="fill:#f9c499;fill-opacity:1;fill-rule:evenodd;stroke:none;stroke-width:1.23573" d="m 193.45764,462.18691 c 0,-166.48194 134.25629,-301.85517 299.44154,-301.85517 165.10832,0 299.28766,135.37323 299.28766,301.85517 0,166.48193 -134.17934,301.77763 -299.28766,301.77763 -165.18525,0 -299.44154,-135.2957 -299.44154,-301.77763 z" id="path1063" /><path style="fill:#000000;fill-opacity:1;fill-rule:evenodd;stroke:none;stroke-width:1.23573" d="m 492.89918,153.03942 c -169.03214,0 -306.59674,138.7091 -306.59674,309.14749 0,170.4384 137.5646,309.06993 306.59674,309.06993 168.9552,0 306.44286,-138.63153 306.44286,-309.06993 0,-170.43839 -137.48766,-309.14749 -306.44286,-309.14749 z m 0,14.50705 c 161.18448,0 292.0555,132.03741 292.0555,294.64044 0,162.60306 -130.87102,294.56286 -292.0555,294.56286 -161.26143,0 -292.2094,-131.9598 -292.2094,-294.56286 0,-162.60303 130.94797,-294.64044 292.2094,-294.64044 z" id="path1060" /><path style="fill:#008080;fill-opacity:1;fill-rule:evenodd;stroke:none;stroke-width:1.23573" d="m 324.94419,375.84285 c -13.00249,0 -24.31233,-9.61964 -26.00496,-23.50607 -1.76956,-13.964 8.69397,-26.91951 23.38906,-28.7038 75.62976,-7.83535 155.64497,-7.83535 230.42843,0 13.92574,1.78429 24.38924,14.7398 23.46598,28.7038 -0.84631,13.88643 -14.77202,24.28183 -28.62082,23.50607 -72.24449,-7.91293 -147.87427,-7.91293 -220.04182,0 z" id="path1057" /><path style="fill:#008080;fill-opacity:1;fill-rule:evenodd;stroke:none;stroke-width:1.23573" d="m 397.72724,671.56939 c -45.23938,0 -86.01635,-20.86845 -100.86532,-53.06323 -6.9244,-15.59314 -7.84765,-32.19477 -1.76956,-47.8655 5.23175,-13.88641 20.08074,-20.86842 34.00645,-15.59311 13.84878,5.19769 20.85012,20.01506 15.61836,33.90148 -0.92325,2.56005 -0.92325,5.19769 0,8.68871 6.92438,14.73979 35.62214,26.14373 66.01254,21.72177 7.84764,-6.05107 17.38793,-18.23079 13.00249,-32.11719 -0.7694,-1.78429 -0.7694,-4.42193 -0.7694,-6.12866 L 410.72971,345.43234 c -0.84632,-14.81735 10.46352,-26.99705 24.38927,-26.99705 14.69508,-0.85338 27.00511,10.39542 27.00511,24.43698 l 11.23292,233.04367 c 7.84765,32.97058 -6.07809,66.94964 -38.23803,89.60236 -2.69282,1.70672 -6.15504,3.41342 -10.46354,4.34435 -7.84764,0.85335 -17.38792,1.70674 -26.9282,1.70674 z" id="path1054" /><path style="fill:#31859b;fill-opacity:1;fill-rule:evenodd;stroke:none;stroke-width:1.23573" d="m 656.54569,797.47812 c -40.00763,0 -79.16892,-13.96403 -107.78972,-41.73689 l -2.69284,-2.56003 c -63.39665,-80.91364 -63.39665,-185.25576 0,-266.16938 9.61721,-13.88644 24.38926,-25.29038 40.93085,-33.04816 51.31746,-24.35941 115.63738,-8.68871 145.18144,33.9015 8.69394,12.17972 5.23177,27.77286 -6.15504,36.46155 -12.15612,8.68872 -27.77446,5.27531 -36.46843,-6.05105 -15.61836,-21.72178 -52.16375,-29.55714 -80.78461,-16.52408 -8.69394,4.34437 -15.69526,9.61965 -20.92702,16.52408 l -0.84634,0.85335 c -48.70157,61.75192 -48.70157,138.3212 -0.92325,201.00405 32.23692,30.41049 91.32507,33.82396 129.56314,7.75778 20.92704,-13.88644 32.15991,-34.75483 30.46727,-55.62328 -0.84628,-14.81735 9.6172,-26.99706 23.46603,-27.85041 13.92573,-0.93093 26.9282,9.54208 27.85145,23.42848 3.46217,40.10772 -16.54162,78.35359 -53.08702,102.71298 -25.23556,18.23077 -56.54921,26.91951 -87.78591,26.91951 z" id="path1051" /><path style="fill:#ffc000;fill-opacity:1;fill-rule:evenodd;stroke:none;stroke-width:1.23573" d="m 93.284748,637.12483 c -8.770893,4.1892 -15.9261,5.27528 -21.696429,3.41341 -5.693391,-1.86185 -10.078845,-6.12862 -13.156347,-12.41243 -2.769758,-5.81833 -3.308323,-11.71425 -1.384883,-17.29985 1.923447,-5.66316 7.078267,-10.55058 15.464478,-14.50704 l 4.616268,-2.24977 4.539323,9.61964 -5.847268,2.79282 c -5.00095,2.32733 -8.07846,5.12012 -9.155591,8.14567 -1.077123,3.1031 -1.000185,6.12864 0.38469,8.84385 1.923448,3.8789 4.385455,6.28381 7.616832,7.13716 3.154448,0.93093 7.616835,0 13.541039,-2.87037 l 48.16302,-22.96302 4.69319,9.61965 z" id="path1048" /><path style="fill:#ffc000;fill-opacity:1;fill-rule:evenodd;stroke:none;stroke-width:1.23573" d="m 184.84062,785.22086 c -7.84765,6.74926 -14.6951,10.16266 -20.69625,10.16266 -5.84726,-0.0776 -10.8482,-2.17214 -14.69509,-6.36135 -4.38545,-4.80985 -6.3089,-10.62816 -5.53951,-17.68781 0.76937,-6.90437 5.46256,-14.42946 14.00265,-22.34238 9.38641,-8.68867 17.9265,-13.57612 25.46639,-14.42944 7.61682,-1.00853 13.92572,1.08612 18.69585,6.3614 4.0777,4.34433 5.77035,9.46449 5.15484,15.3604 -0.61551,5.97344 -4.00077,11.71422 -10.15578,16.98951 l -6.07809,-6.59414 c 4.38546,-4.11162 7.00134,-7.75773 7.84765,-11.17119 0.92326,-3.49099 0.077,-6.59406 -2.46201,-9.38691 -2.92363,-3.18066 -7.00133,-4.2668 -12.00227,-3.02555 -5.00095,1.08614 -11.46371,5.27528 -19.23443,12.49006 -7.15521,6.59414 -11.30983,12.33485 -12.46391,16.83438 -1.15406,4.57705 -0.30775,8.37836 2.38507,11.32639 2.07731,2.17212 4.92401,3.2582 8.69397,3.10307 3.84688,-0.15519 8.61702,-3.02555 14.61816,-8.53355 z" id="path1045" /><path style="fill:#ffc000;fill-opacity:1;fill-rule:evenodd;stroke:none;stroke-width:1.23573" d="m 270.62616,910.66409 c -6.9244,-6.28375 -10.92515,-12.87789 -11.8484,-19.78233 -1.00018,-6.82686 0.46162,-13.34341 4.3085,-19.47203 l 6.30889,5.74079 c -2.61589,4.73224 -3.3083,9.38689 -2.00037,13.96395 1.30794,4.65472 3.92381,8.61122 7.84766,12.17973 3.69299,3.25828 7.30905,5.04257 10.69433,5.19769 3.53913,0.15519 6.30887,-1.31878 8.46312,-4.42186 2.15428,-3.33587 2.61591,-6.67174 1.30796,-10.31785 -1.38489,-3.56859 -4.38545,-8.61115 -9.07864,-15.20529 -4.69321,-6.51653 -7.46296,-12.17972 -8.23234,-16.9895 -0.69244,-4.80984 0.38469,-9.30938 3.23138,-13.65371 3.23137,-4.80984 7.5399,-7.36989 12.84858,-7.52509 5.30871,-0.23271 10.61744,2.01709 16.00306,6.82686 5.61646,5.04256 9.15558,10.62816 10.46353,16.83439 1.30793,6.20622 0.15386,12.25733 -3.4622,18.15324 l -6.46277,-5.74079 c 4.30852,-7.83533 2.61588,-15.20522 -5.0779,-21.95447 -3.61607,-3.25827 -7.00132,-4.96504 -10.15576,-5.12016 -3.15446,-0.1552 -5.61646,1.16366 -7.46296,3.95649 -1.69262,2.48245 -2.15427,5.0425 -1.38488,7.75773 0.76938,2.71524 3.00057,6.67174 6.69357,11.7143 3.61609,5.12009 6.3089,9.3869 8.1554,12.95548 1.8465,3.491 2.84671,7.2147 3.07752,11.24872 0.23083,4.11163 -0.92327,8.14572 -3.69302,12.17974 -3.46219,5.19775 -8.0015,7.91292 -13.77184,8.22324 -5.61646,0.38791 -11.2329,-1.86182 -16.77242,-6.74927 z" id="path1042" /><path style="fill:#ffc000;fill-opacity:1;fill-rule:evenodd;stroke:none;stroke-width:1.23573" d="m 475.51126,931.45498 -14.07958,-8.37843 -31.62143,53.0632 -8.07844,-4.80978 31.6214,-53.06327 -14.00267,-8.45595 4.00077,-6.59407 36.00683,21.64416 z" id="path1039" /><path style="fill:#ffc000;fill-opacity:1;fill-rule:evenodd;stroke:none;stroke-width:1.23573" d="m 790.26337,832.85359 c 9.69416,7.6802 15.00292,15.36041 15.8492,22.73029 0.76938,7.52509 -1.53876,14.73979 -7.15519,21.79936 l -8.61705,10.86088 -54.39499,-43.36599 8.61705,-10.78329 c 6.23193,-7.99052 13.00246,-12.02461 20.23463,-12.49004 7.23216,-0.31032 15.61836,3.41346 25.46635,11.24879 z m -6.15497,7.60261 c -7.84766,-6.20623 -14.31045,-9.3093 -19.61914,-9.3093 -5.15479,0 -9.77107,2.56003 -13.84882,7.6802 l -2.84666,3.49098 42.3157,33.74637 2.76977,-3.49106 c 4.07775,-5.19768 5.61651,-10.24024 4.61628,-15.20521 -1.07713,-5.04257 -5.46256,-10.62816 -13.38713,-16.91198 z" id="path1036" /><path style="fill:#ffc000;fill-opacity:1;fill-rule:evenodd;stroke:none;stroke-width:1.23573" d="m 936.98357,641.77949 c 14.0796,6.74927 23.08137,13.18824 26.77433,19.47203 3.84689,6.28381 3.61611,12.49004 -0.53853,18.54109 -4.07768,6.05108 -10.54046,9.38692 -19.08053,10.00753 -8.54015,0.54305 -19.84999,-2.48248 -33.92959,-9.15417 -14.00263,-6.67168 -22.92743,-13.18822 -26.46657,-19.54961 -3.53914,-6.28381 -3.3083,-12.49002 0.92325,-18.5411 4.15465,-6.05104 10.46356,-9.38691 18.69588,-9.92995 8.38619,-0.46544 19.54216,2.48248 33.62176,9.15418 z m -5.77031,8.3784 c -12.61774,-5.8959 -21.61952,-8.76629 -26.85122,-8.45597 -5.38565,0.15517 -9.15565,1.86187 -11.23293,4.8874 -2.00039,3.02554 -1.84652,6.5941 0.38472,10.62816 2.46194,4.03404 9.92495,9.07661 22.5427,14.97251 12.54085,6.05107 21.54254,8.84386 27.15905,8.61113 5.53946,-0.38789 9.38635,-2.01703 11.54061,-5.04255 2.0773,-3.02555 1.76954,-6.59412 -0.76938,-10.55057 -2.61588,-4.03406 -10.2327,-8.99903 -22.77355,-15.05011 z" id="path1033" /><path style="fill:#ffc000;fill-opacity:1;fill-rule:evenodd;stroke:none;stroke-width:1.23573" d="m 912.44049,773.89448 -6.53969,8.06811 -61.08857,-48.56374 6.53969,-8.14565 z" id="path1030" /><path style="fill:#ffc000;fill-opacity:1;fill-rule:evenodd;stroke:none;stroke-width:1.23573" d="m 642.46607,934.48053 c 3.61607,4.80977 5.23175,9.69721 4.84709,14.35186 -0.46162,4.73225 -3.38528,9.07659 -8.84783,13.18821 -5.46259,4.03402 -10.46353,5.66319 -15.0798,4.73224 -4.69322,-0.93094 -8.77091,-3.87889 -12.38697,-8.68874 l -27.38983,-36.61665 7.00134,-5.19776 27.31289,36.61672 c 2.61587,3.491 5.30869,5.35288 8.07844,5.7408 2.84671,0.46543 5.61646,-0.31032 8.1554,-2.32733 2.69284,-2.01708 4.23158,-4.42194 4.53934,-7.13717 0.46162,-2.87043 -0.61553,-5.97351 -3.2314,-9.3869 l -27.31288,-36.61673 7.00132,-5.27527 z" id="path1027" /></svg>